HIERARCHY
ROOT Hips
{
  OFFSET 5.84602e-005 68.8428 3.50346
  CHANNELS 6 Xposition Yposition Zposition Zrotation Xrotation Yrotation
  JOINT Spine
  {
    OFFSET 0 8.597 -4.6522
    CHANNELS 3 Zrotation Xrotation Yrotation
    JOINT Spine1
    {
      OFFSET 0 7.8454 0.4098
      CHANNELS 3 Zrotation Xrotation Yrotation
      JOINT Spine2
      {
        OFFSET 0 9.7078 -2.1609
        CHANNELS 3 Zrotation Xrotation Yrotation
        JOINT Neck
        {
          OFFSET 0 21.8761 -0.4549
          CHANNELS 3 Zrotation Xrotation Yrotation
          JOINT Head
          {
            OFFSET 0 12.3537 3.3602
            CHANNELS 3 Zrotation Xrotation Yrotation
            End Site
            {
              OFFSET 0.0001 18.9506 0.5657
            }
          }
        }
        JOINT LeftShoulder
        {
          OFFSET 2.2086 21.1115 7.2329
          CHANNELS 3 Zrotation Xrotation Yrotation
          JOINT LeftArm
          {
            OFFSET 13.1193 3.0282 -4.8998
            CHANNELS 3 Zrotation Xrotation Yrotation
            JOINT LeftForeArm
            {
              OFFSET 27.4081 -0.0973053 -0.2375
              CHANNELS 3 Zrotation Xrotation Yrotation
              JOINT LeftHand
              {
                OFFSET 22.8641 0.0662994 -0.1369
                CHANNELS 3 Zrotation Xrotation Yrotation
                JOINT LeftHandIndex1
                {
                  OFFSET 8.8614 0.775009 2.4612
                  CHANNELS 3 Zrotation Xrotation Yrotation
                  JOINT LeftHandIndex2
                  {
                    OFFSET 3.3146 -0.808304 0.5841
                    CHANNELS 3 Zrotation Xrotation Yrotation
                    JOINT LeftHandIndex3
                    {
                      OFFSET 2.2628 -0.552002 0.3989
                      CHANNELS 3 Zrotation Xrotation Yrotation
                      End Site
                      {
                        OFFSET 1.6102 -0.4807 0.2612
                      }
                    }
                  }
                }
                JOINT LeftHandMiddle1
                {
                  OFFSET 8.9937 0.895004 0.2143
                  CHANNELS 3 Zrotation Xrotation Yrotation
                  JOINT LeftHandMiddle2
                  {
                    OFFSET 4.0984 0.0113983 -0.0242
                    CHANNELS 3 Zrotation Xrotation Yrotation
                    JOINT LeftHandMiddle3
                    {
                      OFFSET 2.2716 0.00689697 -0.0138001
                      CHANNELS 3 Zrotation Xrotation Yrotation
                      End Site
                      {
                        OFFSET 2.0404 -0.1441 0.0027
                      }
                    }
                  }
                }
                JOINT LeftHandRing1
                {
                  OFFSET 8.5234 0.597198 -2.0164
                  CHANNELS 3 Zrotation Xrotation Yrotation
                  JOINT LeftHandRing2
                  {
                    OFFSET 3.7188 -0.188293 -0.2328
                    CHANNELS 3 Zrotation Xrotation Yrotation
                    JOINT LeftHandRing3
                    {
                      OFFSET 2.1191 -0.106598 -0.1332
                      CHANNELS 3 Zrotation Xrotation Yrotation
                      End Site
                      {
                        OFFSET 1.8737 -0.2304 -0.0886
                      }
                    }
                  }
                }
                JOINT LeftHandPinky1
                {
                  OFFSET 7.9094 -0.601089 -3.4825
                  CHANNELS 3 Zrotation Xrotation Yrotation
                  JOINT LeftHandPinky2
                  {
                    OFFSET 2.2874 -0.477005 -0.6314
                    CHANNELS 3 Zrotation Xrotation Yrotation
                    JOINT LeftHandPinky3
                    {
                      OFFSET 1.6774 -0.349396 -0.4633
                      CHANNELS 3 Zrotation Xrotation Yrotation
                      End Site
                      {
                        OFFSET 1.4888 -0.4091 -0.3416
                      }
                    }
                  }
                }
                JOINT LeftHandThumb1
                {
                  OFFSET 1.833 -1.3875 1.3896
                  CHANNELS 3 Zrotation Xrotation Yrotation
                  JOINT LeftHandThumb2
                  {
                    OFFSET 3.4129 -1.121 2.5732
                    CHANNELS 3 Zrotation Xrotation Yrotation
                    JOINT LeftHandThumb3
                    {
                      OFFSET 2.2474 -0.804199 1.6192
                      CHANNELS 3 Zrotation Xrotation Yrotation
                      End Site
                      {
                        OFFSET 1.6527 -0.5689 1.1317
                      }
                    }
                  }
                }
              }
            }
          }
        }
        JOINT RightShoulder
        {
          OFFSET -2.2086 21.1115 7.2329
          CHANNELS 3 Zrotation Xrotation Yrotation
          JOINT RightArm
          {
            OFFSET -13.1216 3.0287 -4.9007
            CHANNELS 3 Zrotation Xrotation Yrotation
            JOINT RightForeArm
            {
              OFFSET -27.4081 -0.0973053 -0.2375
              CHANNELS 3 Zrotation Xrotation Yrotation
              JOINT RightHand
              {
                OFFSET -22.8641 0.0664063 -0.1369
                CHANNELS 3 Zrotation Xrotation Yrotation
                JOINT RightHandIndex1
                {
                  OFFSET -8.8614 0.774994 2.4612
                  CHANNELS 3 Zrotation Xrotation Yrotation
                  JOINT RightHandIndex2
                  {
                    OFFSET -3.3146 -0.808304 0.5841
                    CHANNELS 3 Zrotation Xrotation Yrotation
                    JOINT RightHandIndex3
                    {
                      OFFSET -2.2628 -0.552002 0.3989
                      CHANNELS 3 Zrotation Xrotation Yrotation
                      End Site
                      {
                        OFFSET -1.6102 -0.4807 0.2612
                      }
                    }
                  }
                }
                JOINT RightHandMiddle1
                {
                  OFFSET -8.9937 0.894989 0.2143
                  CHANNELS 3 Zrotation Xrotation Yrotation
                  JOINT RightHandMiddle2
                  {
                    OFFSET -4.0984 0.0113983 -0.0242
                    CHANNELS 3 Zrotation Xrotation Yrotation
                    JOINT RightHandMiddle3
                    {
                      OFFSET -2.2716 0.00691223 -0.0138001
                      CHANNELS 3 Zrotation Xrotation Yrotation
                      End Site
                      {
                        OFFSET -2.0404 -0.1441 0.0027
                      }
                    }
                  }
                }
                JOINT RightHandRing1
                {
                  OFFSET -8.5234 0.597198 -2.0164
                  CHANNELS 3 Zrotation Xrotation Yrotation
                  JOINT RightHandRing2
                  {
                    OFFSET -3.7188 -0.188309 -0.2328
                    CHANNELS 3 Zrotation Xrotation Yrotation
                    JOINT RightHandRing3
                    {
                      OFFSET -2.1191 -0.106598 -0.1332
                      CHANNELS 3 Zrotation Xrotation Yrotation
                      End Site
                      {
                        OFFSET -1.8737 -0.2304 -0.0886
                      }
                    }
                  }
                }
                JOINT RightHandPinky1
                {
                  OFFSET -7.9094 -0.601105 -3.4825
                  CHANNELS 3 Zrotation Xrotation Yrotation
                  JOINT RightHandPinky2
                  {
                    OFFSET -2.2874 -0.477005 -0.6314
                    CHANNELS 3 Zrotation Xrotation Yrotation
                    JOINT RightHandPinky3
                    {
                      OFFSET -1.6774 -0.349396 -0.4633
                      CHANNELS 3 Zrotation Xrotation Yrotation
                      End Site
                      {
                        OFFSET -1.4888 -0.4091 -0.3416
                      }
                    }
                  }
                }
                JOINT RightHandThumb1
                {
                  OFFSET -1.833 -1.38751 1.3896
                  CHANNELS 3 Zrotation Xrotation Yrotation
                  JOINT RightHandThumb2
                  {
                    OFFSET -3.41299 -1.12099 2.5732
                    CHANNELS 3 Zrotation Xrotation Yrotation
                    JOINT RightHandThumb3
                    {
                      OFFSET -2.24741 -0.804108 1.6192
                      CHANNELS 3 Zrotation Xrotation Yrotation
                      End Site
                      {
                        OFFSET -1.6527 -0.5689 1.1317
                      }
                    }
                  }
                }
              }
            }
          }
        }
      }
    }
  }
  JOINT RightUpLeg
  {
    OFFSET -9.1966 3.8861 -0.7581
    CHANNELS 3 Zrotation Xrotation Yrotation
    JOINT RightLeg
    {
      OFFSET -0.7359 -41.0265 0
      CHANNELS 3 Zrotation Xrotation Yrotation
      JOINT RightFoot
      {
        OFFSET 0 -40.2855 0
        CHANNELS 3 Zrotation Xrotation Yrotation
        JOINT RightToeBase
        {
          OFFSET 0 -5.6122 11.7359
          CHANNELS 3 Zrotation Xrotation Yrotation
          End Site
          {
            OFFSET 0 0 7.8731
          }
        }
      }
    }
  }
  JOINT LeftUpLeg
  {
    OFFSET 9.1965 3.8864 -0.7581
    CHANNELS 3 Zrotation Xrotation Yrotation
    JOINT LeftLeg
    {
      OFFSET 0.7359 -41.0268 0
      CHANNELS 3 Zrotation Xrotation Yrotation
      JOINT LeftFoot
      {
        OFFSET 0 -40.2855 0
        CHANNELS 3 Zrotation Xrotation Yrotation
        JOINT LeftToeBase
        {
          OFFSET 0 -5.6122 11.7359
          CHANNELS 3 Zrotation Xrotation Yrotation
          End Site
          {
            OFFSET 0 0 7.8731
          }
        }
      }
    }
  }
}
MOTION
Frames:	6
Frame Time:	0.0333333
-0.296888 1.10602 10.9539 -0 -87.8431 -0 -0.0486838 5.58326 -0.117283 -0.0864404 11.1667 -0.231434 -0.0864405 11.1667 -0.231434 6.5531e-007 5.16885 7.3736e-008 -9.78871e-008 2.09124 -3.49089e-008 15.0227 10.1502 9.85663 -86.0679 -3.44181 37.0995 33.5827 6.31307 -89.7044 -18.6129 25.0927 6.26866 -2.32986e-006 2.05748e-007 6.00288e-007 -2.32986e-006 2.05748e-007 6.00288e-007 -2.32986e-006 2.05748e-007 6.00288e-007 -2.32986e-006 2.05748e-007 6.00288e-007 -0.0146088 -8.77199e-005 -1.12427e-005 -2.32986e-006 2.05671e-007 6.00316e-007 -2.32986e-006 2.05748e-007 6.00288e-007 -0.0187453 -0.00117361 5.79409e-005 -2.32986e-006 2.05651e-007 6.00346e-007 -2.32986e-006 2.05748e-007 6.00288e-007 -0.0122569 -0.00324624 0.000683929 -2.32984e-006 2.05698e-007 6.00376e-007 -2.32986e-006 2.05748e-007 6.00288e-007 -2.32986e-006 2.05748e-007 6.00288e-007 -2.32986e-006 2.05748e-007 6.00288e-007 -15.0816 10.2333 -9.72208 85.688 -3.33481 -37.1943 -33.6338 5.92735 90.187 18.9044 24.7633 -6.51052 1.20003e-031 4.32357e-015 -1.59028e-015 -2.32398e-006 -2.2771e-007 6.15133e-007 -0 -4.91992e-015 -0 1.20003e-031 4.32357e-015 -1.59028e-015 0.0149814 -8.82668e-005 9.72444e-006 -7.28295e-031 1.31198e-014 3.18055e-015 1.20003e-031 4.32357e-015 -1.59028e-015 0.0190073 -0.00119271 -5.36278e-005 7.95139e-016 3.13086e-015 4.77083e-015 1.20003e-031 4.32357e-015 -1.59028e-015 0.0122731 -0.00324611 -0.000678475 3.97569e-016 2.98177e-015 3.18055e-015 1.20003e-031 4.32357e-015 -1.59028e-015 -2.32398e-006 -2.2771e-007 6.15133e-007 -0 -4.91992e-015 -0 -171.754 -52.6271 -148.193 175.863 68.2726 179.961 -37.1042 27.6928 56.5794 -3.42602e-007 2.4783e-007 -7.37375e-007 45.9936 -2.1029 -26.2513 -5.00327 -3.24976e-005 -3.10007 12.7608 -2.80981 28.3409 -3.18055e-015 -1.39149e-015 -0 
-0.297921 1.1265 11.0013 -0 -88.0014 -0 -0.0485772 5.55972 -0.117348 -0.0862644 11.1195 -0.231582 -0.0862644 11.1195 -0.231582 -8.40417e-008 4.99719 -2.59729e-007 -1.43112e-008 1.9987 1.30315e-007 15.2824 10.325 9.86081 -86.2326 -3.52856 37.1916 33.5847 6.29484 -89.89 -18.8476 25.1205 6.4115 2.3297e-006 -2.06089e-007 -6.00842e-007 5.93119e-032 2.13694e-015 -1.59028e-015 2.53579e-006 2.12361e-006 -5.79429e-007 2.3297e-006 -2.06089e-007 -6.00842e-007 -0.0146196 -8.91927e-005 6.73285e-007 2.53571e-006 2.12368e-006 -5.7916e-007 2.3297e-006 -2.06089e-007 -6.00842e-007 -0.0187396 -0.00117409 5.25989e-005 2.41686e-006 2.19761e-006 -1.42487e-006 2.3297e-006 -2.06089e-007 -6.00842e-007 -0.0122533 -0.00324221 0.000667326 2.53572e-006 2.12364e-006 -5.7927e-007 2.3297e-006 -2.06089e-007 -6.00842e-007 5.93119e-032 2.13694e-015 -1.59028e-015 2.53579e-006 2.12361e-006 -5.79429e-007 -15.3473 10.4054 -9.73157 85.8504 -3.42126 -37.289 -33.6354 5.90368 90.3827 19.1494 24.7919 -6.65796 -3.97569e-016 1.39149e-015 -1.59028e-015 -3.97569e-016 3.8266e-015 -1.59028e-015 -1.19271e-015 1.98785e-016 -3.18055e-015 -3.97569e-016 1.39149e-015 -1.59028e-015 0.0149969 -9.15816e-005 9.18473e-007 3.97569e-016 -6.11263e-015 3.18055e-015 -3.97569e-016 1.39149e-015 -1.59028e-015 0.0189993 -0.00119087 -5.13428e-005 7.95139e-016 1.49089e-016 -0 -3.97569e-016 1.39149e-015 -1.59028e-015 0.0122712 -0.00324768 -0.00067205 3.97569e-016 6.16232e-015 -0 -3.97569e-016 1.39149e-015 -1.59028e-015 -3.97569e-016 3.8266e-015 -1.59028e-015 -1.19271e-015 1.98785e-016 -3.18055e-015 -171.829 -52.792 -148.232 175.894 68.2065 179.933 -37.0785 27.6102 56.7648 3.18055e-015 0 -0 45.9849 -1.99072 -26.3575 -5.00223 1.12948e-005 -3.14357 12.7726 -2.97109 28.29 -1.27222e-014 -9.93923e-016 -0 
-0.296888 1.10602 10.9539 -0 -87.8431 -0 -0.0486838 5.58326 -0.117283 -0.0864404 11.1667 -0.231434 -0.0864405 11.1667 -0.231434 6.5531e-007 5.16885 7.3736e-008 -9.78871e-008 2.09124 -3.49089e-008 15.0227 10.1502 9.85662 -86.0679 -3.44181 37.0996 33.5827 6.31307 -89.7044 -18.6129 25.0927 6.26868 1.26781e-006 1.06206e-006 -2.89114e-007 2.05748e-007 2.32986e-006 2.20595e-008 1.26781e-006 1.06206e-006 -2.89114e-007 1.26781e-006 1.06206e-006 -2.89114e-007 -0.0146181 -8.67774e-005 1.07606e-006 1.26777e-006 1.06209e-006 -2.8898e-007 1.26781e-006 1.06206e-006 -2.89114e-007 -0.0187797 -0.00117666 5.21289e-005 1.26775e-006 1.0621e-006 -2.88953e-007 1.26781e-006 1.06206e-006 -2.89114e-007 -0.0122472 -0.0032424 0.00068157 1.26777e-006 1.06207e-006 -2.89035e-007 1.26781e-006 1.06206e-006 -2.89114e-007 2.05748e-007 2.32986e-006 2.20595e-008 1.26781e-006 1.06206e-006 -2.89114e-007 -15.0816 10.2333 -9.72208 85.6879 -3.33479 -37.1943 -33.6338 5.92734 90.187 18.9044 24.7633 -6.51053 1.37935e-032 4.96962e-016 -1.59028e-015 -0 -2.83268e-015 -0 -1.10348e-032 3.97569e-016 1.59028e-015 1.37935e-032 4.96962e-016 -1.59028e-015 0.0150005 -9.32641e-005 -5.04928e-006 -1.19271e-015 -6.85807e-015 -1.27222e-014 1.37935e-032 4.96962e-016 -1.59028e-015 0.0190013 -0.00119196 -6.20057e-005 -3.97569e-016 1.04362e-015 -0 1.37935e-032 4.96962e-016 -1.59028e-015 0.0122902 -0.00325396 -0.000678214 -1.59028e-015 1.39149e-015 -1.59028e-015 1.37935e-032 4.96962e-016 -1.59028e-015 -0 -2.83268e-015 -0 -1.10348e-032 3.97569e-016 1.59028e-015 -171.754 -52.6273 -148.193 175.863 68.2728 179.961 -37.1042 27.6928 56.5794 1.61773e-006 2.8698e-007 -1.82547e-006 45.9936 -2.1029 -26.2513 -5.00327 -3.24976e-005 -3.10007 12.7608 -2.80981 28.3409 -3.18055e-015 -1.39149e-015 -0 
-0.294622 1.06088 10.8493 -0 -87.4949 -0 -0.0489204 5.63518 -0.117145 -0.0868323 11.2705 -0.231119 -0.0868324 11.2705 -0.231119 7.03339e-007 5.54648 2.86436e-007 -4.41771e-008 2.29485 3.28246e-008 14.4512 9.76545 9.84656 -85.7046 -3.25082 36.897 33.5782 6.34066 -89.2942 -18.0971 25.0304 5.95478 -3.97569e-016 9.44227e-016 -1.59028e-015 2.3302e-006 -2.0521e-007 -5.99135e-007 1.59028e-015 -7.00716e-015 1.59028e-014 -3.97569e-016 9.44227e-016 -1.59028e-015 -0.0146014 -8.72945e-005 -2.53623e-007 2.5842e-015 4.77083e-015 1.27222e-014 -3.97569e-016 9.44227e-016 -1.59028e-015 -0.0187781 -0.00117742 5.72856e-005 1.98785e-015 -2.68359e-015 1.11319e-014 -3.97569e-016 9.44227e-016 -1.59028e-015 -0.0122698 -0.00325019 0.000690595 -3.97569e-016 3.62782e-015 -1.59028e-015 -3.97569e-016 9.44227e-016 -1.59028e-015 2.3302e-006 -2.0521e-007 -5.99135e-007 1.59028e-015 -7.00716e-015 1.59028e-014 -14.4968 9.85482 -9.70035 85.3297 -3.14438 -36.9859 -33.6301 5.9646 89.7553 18.366 24.6992 -6.18654 -3.97569e-016 -2.43511e-015 -1.59028e-015 -1.59028e-015 -6.01324e-015 -3.18055e-015 -7.95139e-016 -6.26172e-015 -4.77083e-015 -3.97569e-016 -2.43511e-015 -1.59028e-015 0.0150025 -9.22503e-005 -3.06682e-006 3.97569e-016 -1.44119e-015 3.18055e-015 -3.97569e-016 -2.43511e-015 -1.59028e-015 0.0189831 -0.00119186 -6.65364e-005 -1.486e-007 -1.31978e-007 -9.27826e-007 -3.97569e-016 -2.43511e-015 -1.59028e-015 0.0122766 -0.00325084 -0.000682043 -2.38542e-015 -5.81445e-015 -1.27222e-014 -3.97569e-016 -2.43511e-015 -1.59028e-015 -1.59028e-015 -6.01324e-015 -3.18055e-015 -7.95139e-016 -6.26172e-015 -4.77083e-015 -171.591 -52.2653 -148.106 175.794 68.4192 -179.975 -37.1596 27.8735 56.1704 -3.43705e-007 2.44946e-007 -7.37511e-007 46.0036 -2.37169 -26.0176 -5.00537 0.0482835 -3.00052 12.7351 -2.4797 28.4566 4.3438e-006 2.07604e-007 -2.22582e-007 
-0.292373 1.01562 10.7445 -0 -87.1466 -0 -0.0491591 5.68714 -0.117012 -0.0872284 11.3744 -0.230811 -0.0872284 11.3744 -0.230811 2.44551e-006 5.92476 -8.96906e-007 -1.10803e-007 2.49846 3.62983e-008 13.8797 9.38054 9.83404 -85.3403 -3.06024 36.6938 33.5736 6.359 -88.8842 -17.5818 24.9661 5.64138 4.27597e-032 -7.70291e-016 3.18055e-015 -3.97569e-016 2.5345e-015 3.18055e-015 -3.21388e-031 5.7896e-015 3.18055e-015 4.27597e-032 -7.70291e-016 3.18055e-015 -0.014613 -8.7216e-005 -4.59439e-006 1.98785e-016 1.32937e-014 4.77083e-015 4.27597e-032 -7.70291e-016 3.18055e-015 -0.0187646 -0.00117377 5.86714e-005 -1.98785e-016 -4.00054e-015 1.59028e-015 4.27597e-032 -7.70291e-016 3.18055e-015 -0.0122531 -0.00324562 0.000678237 -1.98785e-016 4.96962e-016 -0 4.27597e-032 -7.70291e-016 3.18055e-015 -3.97569e-016 2.5345e-015 3.18055e-015 -3.21388e-031 5.7896e-015 3.18055e-015 -13.9119 9.4762 -9.67614 84.9704 -2.95439 -36.7769 -33.6262 5.99091 89.3244 17.8282 24.633 -5.86312 -1.98785e-016 2.5842e-015 -0 -1.19271e-015 5.96354e-015 3.18055e-015 -7.95139e-016 6.06293e-015 1.59028e-015 -1.98785e-016 2.5842e-015 -0 0.0149892 -9.33287e-005 -8.51196e-006 5.51738e-032 -1.98785e-015 1.59028e-015 -1.98785e-016 2.5842e-015 -0 0.0190002 -0.00119058 -5.7738e-005 5.96354e-016 6.70898e-015 4.77083e-015 -1.98785e-016 2.5842e-015 -0 0.0122634 -0.00324737 -0.000671408 1.78906e-015 2.78299e-015 1.59028e-015 -1.98785e-016 2.5842e-015 -0 -1.19271e-015 5.96354e-015 3.18055e-015 -7.95139e-016 6.06293e-015 1.59028e-015 -171.43 -51.9028 -148.02 175.724 68.5651 -179.91 -37.2133 28.0536 55.7598 -1.26362e-006 4.85342e-007 -7.75582e-008 46.0065 -2.65844 -25.7838 -5.00731 0.135955 -2.89779 12.7093 -2.16968 28.5751 6.36111e-015 1.78906e-015 -0 
-0.290537 0.978489 10.6586 -0 -86.8615 -0 -0.0493536 5.72974 -0.116898 -0.0875514 11.4595 -0.230551 -0.0875515 11.4595 -0.230551 3.28228e-006 6.2337 -1.71389e-006 -8.73592e-008 2.66504 6.51658e-008 13.412 9.06536 9.8199 -85.0418 -2.90577 36.5261 33.5697 6.38039 -88.5494 -17.1605 24.9112 5.38554 2.33074e-006 -2.04393e-007 -5.9721e-007 2.33074e-006 -2.04393e-007 -5.9721e-007 2.33074e-006 -2.04393e-007 -5.9721e-007 2.33074e-006 -2.04393e-007 -5.9721e-007 -0.0146059 -8.90882e-005 -6.76748e-006 2.33074e-006 -2.04317e-007 -5.97238e-007 2.33074e-006 -2.04393e-007 -5.9721e-007 -0.0187517 -0.00117768 5.83714e-005 2.33073e-006 -2.04297e-007 -5.97267e-007 2.33074e-006 -2.04393e-007 -5.9721e-007 -0.0122855 -0.00325474 0.000675723 2.33072e-006 -2.04344e-007 -5.97298e-007 2.33074e-006 -2.04393e-007 -5.9721e-007 2.33074e-006 -2.04393e-007 -5.9721e-007 2.33074e-006 -2.04393e-007 -5.9721e-007 -13.4332 9.16628 -9.6524 84.676 -2.80038 -36.6045 -33.6228 6.02008 88.9723 17.3883 24.5762 -5.59911 2.32488e-006 2.26313e-007 -6.12126e-007 1.04928e-006 1.2756e-006 -3.16579e-007 2.32488e-006 2.26313e-007 -6.12126e-007 2.32488e-006 2.26313e-007 -6.12126e-007 0.0150051 -8.86331e-005 2.93134e-006 2.32488e-006 2.26233e-007 -6.12158e-007 2.32488e-006 2.26313e-007 -6.12126e-007 0.0190033 -0.00119072 -6.61972e-005 2.32487e-006 2.26213e-007 -6.12188e-007 2.32488e-006 2.26313e-007 -6.12126e-007 0.0122724 -0.00324769 -0.00068329 2.32486e-006 2.26262e-007 -6.12216e-007 2.32488e-006 2.26313e-007 -6.12126e-007 1.04928e-006 1.2756e-006 -3.16579e-007 2.32488e-006 2.26313e-007 -6.12126e-007 -171.3 -51.6069 -147.952 175.666 68.6853 -179.856 -37.2563 28.202 55.4237 -6.91361e-007 4.79325e-007 -1.47544e-006 46.0316 -2.84765 -25.5931 -5.00882 0.106363 -2.82204 12.6848 -1.86467 28.6661 -3.18055e-015 1.21259e-014 -7.95139e-016 
